<?xml version="1.0" encoding="utf-8"?>
<!DOCTYPE svg PUBLIC "-//W3C//DTD SVG 20010904//EN" "http://www.w3.org/TR/2001/REC-SVG-20010904/DTD/svg10.dtd">
<svg version="1.0" xmlns="http://www.w3.org/2000/svg" width="888px" height="432px" viewBox="0 0 888 432" preserveAspectRatio="xMidYMid meet">
 <g fill="#ffffff" stroke="#ffffff" stroke-width="1">
  <path d="M420.8 419.6 c-17 -5.8 -33.2 -17.5 -38.2 -27.5 -11.3 -22.5 0.2 -50 20.9 -50.1 10.1 0 18.5 4.1 22.4 11.1 2.8 4.9 3.8 14.2 2.1 19.3 -1.3 4.1 -11 15.2 -14.2 16.2 -1.9 0.6 -1.8 0.8 1.3 4.1 3.3 3.3 24.1 19.3 25.2 19.3 0.3 0 4.2 -4.4 8.7 -9.7 13.7 -16.6 24.6 -42 28.4 -66.3 4.5 -28.4 6.7 -83.4 4.5 -110 -0.9 -11.1 -1 -11.6 -4 -14 l-3 -2.5 3.6 -3.5 3.5 -3.4 0 -13 c0 -24.6 2.9 -79.9 5.1 -96.6 2.5 -19.9 7.4 -40.2 11.9 -49 11.6 -23.2 27.1 -38 39.6 -38 14.4 0 36.2 14.7 43.3 29.2 6.3 12.7 4.8 22.6 -4 28.5 -5.4 3.6 -14.2 3.9 -18.6 0.7 -7.5 -5.6 -9.4 -13.8 -4.7 -20.7 2.2 -3.3 2.4 -4.1 1.2 -5.5 -4.2 -5.4 -21.1 -24.2 -21.8 -24.2 -1.4 0 -6.9 11.7 -8.9 19 -5.7 21.3 -8.7 77.6 -7.5 142.8 l0.7 35.3 2.9 2.4 c3.4 2.9 3.4 3 0.4 7.4 -2.4 3.6 -2.4 4 -3.5 41.1 -0.9 33.8 -1.4 39.4 -4.1 56.4 -5.3 33.1 -10.6 49.9 -21.6 68.8 -5.4 9.2 -10.7 15.4 -18.3 21.2 -18.6 14.3 -34.6 17.7 -53.3 11.2z"/>
  <path d="M538 248.5 l0 -10.5 7.5 0 7.5 0 0 -45 0 -45 -7.5 0 -7.5 0 0 -12 0 -12 48.8 0.2 48.7 0.3 0 20.5 0 20.5 -10.7 0.3 -10.8 0.3 0 -9.1 0 -9 -19 0 -19 0 0 16.4 0 16.3 14.8 0.7 c8.1 0.4 16.8 0.9 19.5 1.3 l4.7 0.6 0 8.8 0 8.9 -19.5 0 -19.5 0 0 18.5 0 18.5 19 0 19 0 0 -9 0 -9 11 0 11 0 0 19.5 0 19.5 -49 0 -49 0 0 -10.5z"/>
  <path d="M688.2 257 c-16.5 -4.3 -27.6 -13.9 -30.3 -26.1 -2 -8.6 3.3 -18.1 10.7 -19.5 10.7 -2 19.8 8 16.6 18.3 l-1.1 3.5 4.7 2.1 c5.8 2.5 18.8 3.4 25.2 1.7 11.7 -3.2 16.8 -17.1 9.4 -25.9 -3.5 -4.2 -8.8 -7 -25.6 -13.5 -25.9 -10.1 -33 -16.8 -35.3 -33.7 -2.3 -16 9.7 -36 25.2 -42 19.4 -7.4 49.4 0.1 57.8 14.5 5.1 8.8 3.8 20.5 -3 26.5 -9.3 8.1 -22.4 -0.8 -21.3 -14.5 0.4 -4.8 0.3 -5.3 -2.1 -6.4 -3.3 -1.6 -14.8 -2.5 -19.5 -1.6 -4.1 0.8 -10 5.5 -12.2 9.7 -0.7 1.5 -1.4 5.3 -1.4 8.3 0 4.7 0.4 6 2.9 8.9 3.8 4.2 10.2 7.7 23.8 12.8 23.9 9 32.1 15.5 35.8 28.4 3.5 11.9 0.1 27.3 -8 36.3 -11 12.3 -32.7 17.3 -52.3 12.2z"/>
  <path d="M797 245.9 c0 -11.1 0 -11.1 2.3 -10.5 1.3 0.3 4.9 0.8 8 1.2 l5.7 0.7 0 -46.5 0 -46.5 -7.2 -0.7 c-4 -0.4 -9.2 -0.9 -11.5 -1.2 l-4.3 -0.6 0 10.5 c0 12.1 0.8 11.2 -11 12.2 -4.1 0.4 -8.3 0.9 -9.2 1.1 -1.7 0.5 -1.8 -1 -1.8 -22 l0 -22.6 56.5 0 56.5 0 0 21 0 21 -11 0 -11 0 0 -10.6 0 -10.6 -3.2 0.5 c-1.8 0.4 -7 0.9 -11.5 1.3 l-8.3 0.7 0 46.5 0 46.5 5.7 -0.7 c3.1 -0.4 6.7 -0.9 8 -1.2 2.3 -0.6 2.3 -0.6 2.3 10.5 l0 11.1 -27.5 0 -27.5 0 0 -11.1z"/>
 </g>
 <g fill="#cb006c">
  <path d="M382.6 261.4 c-13.8 -3.3 -27.6 -14.3 -33.5 -26.7 -6.5 -13.5 -6.6 -14.9 -6.6 -61.4 0 -41 0.1 -42.2 2.1 -44.9 3.9 -5.2 7.1 -6.9 13.3 -6.9 4.3 0.1 6.5 0.6 9 2.4 6.4 4.6 6.5 5.4 7.1 48.6 0.5 37 0.7 39.3 2.7 44.3 2.9 7.1 6.6 11.8 11.1 14.1 14.3 7.1 29.1 0.4 34.3 -15.5 2 -6.5 2.2 -9.1 2.6 -44.4 0.4 -33.7 0.7 -37.9 2.4 -41.8 4.6 -10.7 21.4 -10.7 27.1 0 2.3 4.3 2.3 4.4 2.2 43.3 0 43.8 -0.5 48.2 -6.9 61.3 -6.8 13.8 -19.1 23.8 -34.1 27.7 -7.3 1.9 -24.7 1.9 -32.8 -0.1z"/>
  <path d="M81.2 258.7 c-6.3 -2 -12.2 -8.7 -26.3 -29.9 l-13.8 -20.8 -0.3 20.2 c-0.3 22.6 -1 25.1 -7.1 28.8 -4.3 2.7 -13.1 2.7 -17.4 0 -7 -4.2 -6.8 -1.9 -7.1 -67.3 -0.3 -63.6 -0.3 -63.2 5 -66.7 2.9 -1.9 35.3 -2.7 46.7 -1.1 20.9 2.8 34.7 12.7 40 28.8 3.7 11.2 2.4 26.9 -3 37.5 -2.9 5.7 -10.8 13.2 -16.3 15.4 -2.5 1.1 -4.6 2.3 -4.6 2.7 0 1.4 10.2 17.1 13.4 20.5 1.7 1.8 4.7 3.7 6.7 4.2 12 3.3 13.2 21.6 1.9 27.5 -3.3 1.7 -12.8 1.8 -17.8 0.2z m-20.4 -82.6 c5.2 -2.7 7.8 -7.8 6.2 -12.5 -2 -6.3 -6.6 -9 -16.9 -10.2 l-6.1 -0.7 0 13.3 0 13.3 6.5 -0.6 c3.5 -0.3 8.2 -1.5 10.3 -2.6z"/>
  <path d="M130.3 257 c-6.9 -4.2 -6.7 -2.8 -7.4 -60 -0.6 -57 -1.8 -71.5 -6.4 -79.5 -2.6 -4.4 -17.5 -19.5 -19.4 -19.5 -0.6 0 -1.1 -0.9 -1.1 -2 0 -1.4 1.1 -2.2 3.8 -2.9 7 -2 12.1 -0.8 7.6 1.7 -1.3 0.7 -0.9 1.5 2.8 4.5 2.5 2.1 4.7 3.7 4.9 3.7 0.2 0 0.2 -2.3 0.1 -5 -0.3 -2.9 0.1 -5.7 0.8 -6.5 0.6 -0.8 0.9 -1.9 0.5 -2.5 -1 -1.6 2.5 -2.4 4 -0.9 1.8 1.8 4.2 11.2 5.5 21.3 0.5 4.4 1.6 8.6 2.3 9.4 1.2 1.1 1.8 0.1 4.1 -6.2 2.7 -7.3 2.7 -7.7 1.2 -12.3 -3 -9.4 -3.5 -13.2 -1.9 -14.8 3.6 -3.6 5.7 -1.5 8.3 8.2 2.1 7.4 2.2 9.1 1.3 17.5 -0.5 5.1 -0.9 9.4 -0.9 9.5 0.1 0 1 0.3 2.1 0.5 1.6 0.2 2.6 -1 5 -5.6 l2.9 -5.9 -3.4 -9.6 c-4 -11.4 -5.3 -23.8 -2.6 -26 3.2 -2.6 4.3 -0.7 4.8 8.6 0.6 9.9 3.7 19.4 5.5 17.1 2.5 -3.1 5.5 -10.3 6.6 -16.1 1.2 -5.6 1.5 -6.2 3.7 -6.2 2.3 0 2.5 0.3 2.3 4.4 -0.1 2.4 -1.6 9.2 -3.2 15 -7 24.7 -7.4 28.6 -8 92.6 -0.6 55.9 -0.7 58.1 -2.7 61.9 -1.1 2.2 -3.5 4.7 -5.4 5.8 -4.7 2.5 -13.5 2.4 -17.7 -0.2z"/>
  <path d="M185.2 257 c-1.9 -1.1 -4.2 -3.9 -5.2 -6.3 -1.9 -4 -2 -7.1 -2 -59.6 0 -39.5 0.3 -56.5 1.2 -59.3 2.5 -8.4 11.4 -12.3 22.4 -9.9 4 0.9 6.1 2.1 8.6 4.9 1.8 2 11.2 17.1 20.8 33.4 9.6 16.4 17.8 29.4 18.1 29 0.4 -0.4 7.5 -12.4 15.9 -26.7 20.5 -35.1 20.5 -35.1 25.9 -38.3 3.8 -2.2 5.8 -2.7 11.1 -2.7 8.2 0.1 12.2 2.1 15.2 7.8 2.3 4.2 2.3 4.4 2.6 57.5 0.3 59.3 0.1 62.1 -5.3 68 -3 3.3 -3.8 3.6 -9.6 4 -5.5 0.3 -6.9 0 -9.8 -2 -7.1 -4.8 -7.2 -5.4 -6.9 -41.6 0.2 -17.7 0.2 -32.2 0.2 -32.2 -0.1 0 -6.3 10.1 -13.8 22.4 -7.6 12.4 -15.3 23.9 -17.2 25.5 -2.8 2.5 -4.3 3.1 -8.3 3.1 -8.1 0 -10 -2 -25.1 -26.7 -7.4 -12.2 -13.9 -22.5 -14.4 -23 -0.5 -0.5 -0.6 11.7 -0.2 29 0.7 33 0.4 35.7 -4.8 41.5 -3.1 3.3 -3.9 3.6 -9.7 3.9 -5.2 0.3 -7 0 -9.7 -1.7z"/>
 </g>
 <g fill="#ffffff">
  <path d="M389 400.3 l-5.5 -5.8 5.8 5.5 c3.1 3 5.7 5.6 5.7 5.7 0 0.8 -1 -0.1 -6 -5.4z"/>
  <path d="M414.9 393.3 l-3.4 -3.8 3.8 3.4 c2 1.9 3.7 3.6 3.7 3.8 0 0.8 -0.8 0 -4.1 -3.4z"/>
  <path d="M482.3 282.5 c0 -4.4 0.2 -6.1 0.4 -3.7 0.2 2.3 0.2 5.9 0 8 -0.2 2 -0.4 0.1 -0.4 -4.3z"/>
  <path d="M538.4 248.5 c0 -6 0.1 -8.4 0.3 -5.2 0.2 3.2 0.2 8.1 0 11 -0.2 2.9 -0.3 0.3 -0.3 -5.8z"/>
  <path d="M635 240 l0 -18.9 -10.7 -0.4 -10.8 -0.3 11.3 -0.2 11.2 -0.2 0 19.5 c0 10.7 -0.2 19.5 -0.5 19.5 -0.3 0 -0.5 -8.5 -0.5 -19z"/>
  <path d="M810.8 256.3 c7.9 -0.2 20.5 -0.2 28 0 7.5 0.1 1.1 0.3 -14.3 0.3 -15.4 0 -21.6 -0.2 -13.7 -0.3z"/>
  <path d="M387.7 250.6 c-11.1 -3.2 -21.8 -12.3 -26.8 -22.7 -5.1 -10.5 -5.4 -13.5 -5.4 -54.1 0 -20.7 0.3 -37.9 0.7 -38.3 0.4 -0.4 1.4 -0.5 2.3 -0.2 1.3 0.6 1.5 5.2 1.5 37.6 0 23.7 0.4 38.9 1.1 42.3 2.9 13.5 10.6 23.4 22.7 29.1 6.1 2.9 7.6 3.2 16.2 3.2 8.2 0 10.3 -0.4 15.2 -2.7 10.5 -4.9 17.9 -13.9 21.6 -26.2 1.2 -4.1 1.6 -12.9 1.9 -44.4 0.4 -36 0.6 -39.3 2.1 -39 1.5 0.3 1.7 3.7 2 36.8 0.2 23.8 -0.1 38.9 -0.9 43.3 -2.3 14.3 -12.3 27.8 -24.6 33.4 -4.6 2.1 -7.5 2.7 -15.2 2.9 -6.1 0.2 -11.4 -0.2 -14.4 -1z"/>
  <path d="M84.5 246.2 c-3.3 -2 -5.5 -5 -23.3 -30.7 l-11.8 -17 -11.2 -0.3 -11.2 -0.3 -0.2 23.8 c-0.3 20.4 -0.5 23.8 -1.8 23.8 -1.3 0 -1.5 -6.9 -1.5 -56 l0 -56 16 -0.3 c9.3 -0.2 18.5 0.2 22 0.8 16.2 3.1 25.4 12.2 27.5 27 2.7 19 -7.5 32.2 -27.7 36.1 -3.5 0.6 -6.3 1.3 -6.3 1.6 0 1.4 27.9 39.9 30.7 42.3 2.1 1.9 4.5 3 6.3 3 2.3 0 3 0.4 3 2 0 1.6 -0.7 2 -3.7 2 -2.1 0 -5.1 -0.8 -6.8 -1.8z m-16.4 -55.6 c6 -2.2 11.5 -6.8 14.1 -11.9 1.7 -3.3 2.2 -6 2.3 -12.2 0 -14 -5.9 -22.4 -19 -27 -3.7 -1.3 -9.5 -1.9 -21.7 -2.3 l-16.8 -0.5 0 28.3 0 28.2 18.3 -0.4 c13.8 -0.4 19.3 -0.9 22.8 -2.2z"/>
  <path d="M41 166 l0 -16.3 9 0.6 c14.2 0.9 19.8 4.8 20.8 14.5 1 11.2 -5 16.2 -20.5 17 l-9.3 0.5 0 -16.3z"/>
  <path d="M482.3 243.5 c0 -2.7 0.2 -3.8 0.4 -2.2 0.2 1.5 0.2 3.7 0 5 -0.2 1.2 -0.4 0 -0.4 -2.8z"/>
  <path d="M665.4 244.8 l-2.9 -3.3 3.3 2.9 c1.7 1.7 3.2 3.1 3.2 3.3 0 0.8 -0.8 0.1 -3.6 -2.9z"/>
  <path d="M138.7 245.4 c-0.4 -0.4 -0.7 -25.9 -0.7 -56.6 0 -44.3 0.3 -55.9 1.3 -55.6 0.9 0.4 1.3 12.6 1.5 55.8 0.1 30.5 -0.2 55.8 -0.6 56.2 -0.5 0.5 -1.1 0.5 -1.5 0.2z"/>
  <path d="M192.5 244.8 c-0.3 -0.7 -0.4 -25.8 -0.3 -55.8 l0.3 -54.5 3.4 0 c3.7 0 0.4 -5 40.2 60 10.9 17.9 12.5 20.2 13.1 19.5 0.3 -0.3 11.2 -18 24.2 -39.5 13.1 -21.4 24.3 -39.3 25 -39.8 0.6 -0.4 2.5 -0.6 4.1 -0.5 l3 0.3 0.3 55.3 c0.2 49.2 0 55.3 -1.3 55.9 -0.9 0.3 -1.9 0.2 -2.3 -0.2 -0.4 -0.3 -0.9 -24.5 -1.2 -53.6 l-0.5 -52.9 -24.9 40.5 c-18.1 29.5 -25.4 40.5 -26.7 40.5 -2 0 -3.3 -1.7 -12.6 -17.1 -3.2 -5.2 -13.4 -22 -22.8 -37.2 l-17 -27.6 -0.5 53.6 c-0.4 41.7 -0.8 53.7 -1.7 54.1 -0.7 0.2 -1.5 -0.2 -1.8 -1z"/>
  <path d="M209.3 241.5 c0 -2.2 0.2 -3 0.4 -1.7 0.2 1.2 0.2 3 0 4 -0.3 0.9 -0.5 -0.1 -0.4 -2.3z"/>
  <path d="M319.5 191 c0 -28.9 0.1 -40.7 0.2 -26.2 0.2 14.4 0.2 38 0 52.5 -0.1 14.4 -0.2 2.6 -0.2 -26.3z"/>
  <path d="M209.3 229 c0 -4.7 0.2 -6.6 0.4 -4.2 0.2 2.3 0.2 6.1 0 8.5 -0.2 2.3 -0.4 0.4 -0.4 -4.3z"/>
  <path d="M685.3 225.5 c0 -2.2 0.2 -3 0.4 -1.7 0.2 1.2 0.2 3 0 4 -0.3 0.9 -0.5 -0.1 -0.4 -2.3z"/>
  <path d="M749.2 215 c0 -1.9 0.2 -2.7 0.5 -1.7 0.2 0.9 0.2 2.5 0 3.5 -0.3 0.9 -0.5 0.1 -0.5 -1.8z"/>
  <path d="M517.4 189 c0 -11.8 0.2 -16.7 0.3 -10.7 0.2 5.9 0.2 15.5 0 21.5 -0.1 5.9 -0.3 1 -0.3 -10.8z"/>
  <path d="M288.4 195.5 c0 -5.5 0.1 -7.6 0.3 -4.7 0.2 2.9 0.2 7.4 0 10 -0.2 2.6 -0.3 0.2 -0.3 -5.3z"/>
  <path d="M456.4 170.5 c0 -17 0.2 -24.2 0.3 -15.8 0.2 8.3 0.2 22.3 0 31 -0.1 8.7 -0.3 1.9 -0.3 -15.2z"/>
  <path d="M482.4 183.5 c0 -9.3 0.2 -13.3 0.3 -8.8 0.2 4.5 0.2 12.2 0 17 -0.1 4.8 -0.3 1.2 -0.3 -8.2z"/>
  <path d="M373.4 189.5 c0 -5.5 0.1 -7.6 0.3 -4.7 0.2 2.9 0.2 7.4 0 10 -0.2 2.6 -0.3 0.2 -0.3 -5.3z"/>
  <path d="M624.2 165.3 l10.8 -0.4 0.3 -19.9 0.3 -20 -0.1 20.2 0 20.3 -11 0.1 -11 0 10.7 -0.3z"/>
  <path d="M768 143.5 l0 -22.5 56.8 0.2 56.7 0.3 -56.3 0.2 -56.3 0.3 0.3 22 c0.2 12.1 0 22 -0.4 22 -0.5 0 -0.8 -10.1 -0.8 -22.5z"/>
  <path d="M662.3 160 c0 -2.5 0.2 -3.5 0.4 -2.2 0.2 1.2 0.2 3.2 0 4.5 -0.2 1.2 -0.4 0.2 -0.4 -2.3z"/>
  <path d="M685.2 159 c0 -1.9 0.2 -2.7 0.5 -1.7 0.2 0.9 0.2 2.5 0 3.5 -0.3 0.9 -0.5 0.1 -0.5 -1.8z"/>
  <path d="M483.3 147.5 c0 -2.7 0.2 -3.8 0.4 -2.2 0.2 1.5 0.2 3.7 0 5 -0.2 1.2 -0.4 0 -0.4 -2.8z"/>
  <path d="M748.3 147.5 c0 -2.2 0.2 -3 0.4 -1.7 0.2 1.2 0.2 3 0 4 -0.3 0.9 -0.5 -0.1 -0.4 -2.3z"/>
  <path d="M538.2 135.8 l0.2 -12.3 0.3 11.7 0.4 11.7 7.2 0.4 7.2 0.3 -7.7 0.2 -7.8 0.2 0.2 -12.2z"/>
  <path d="M484.3 123 c0 -3 0.2 -4.3 0.4 -2.7 0.2 1.5 0.2 3.9 0 5.5 -0.2 1.5 -0.4 0.2 -0.4 -2.8z"/>
  <path d="M115 78.7 c-0.9 -0.7 -2.6 -6.7 -4.3 -15.3 -3.4 -17.8 -3.4 -18.4 0 -18.4 1.9 0 2.4 0.3 1.7 1 -0.8 0.8 0 5.9 2.2 16.8 1.9 8.6 3.4 16 3.4 16.5 0 1 -1.3 0.8 -3 -0.6z"/>
  <path d="M122 76.6 c0 -2 0.4 -3.6 0.9 -3.6 0.5 0 1.2 -1.1 1.5 -2.5 0.5 -1.8 1.3 -2.5 3.1 -2.5 3.2 0 3.1 0.6 -0.4 6.2 -3.9 6.2 -5.1 6.7 -5.1 2.4z"/>
  <path d="M98.7 72.2 c-3 -3.1 -3.8 -7.5 -1.2 -6.6 2.2 0.9 1.9 -0.1 -1.4 -4.7 -4.1 -5.6 -5.7 -13 -4.2 -19.7 1.4 -6.7 3.7 -12.2 5 -12.2 1.4 0 1.4 6.7 0.1 7.2 -0.5 0.2 -1.3 3.8 -1.6 8 -0.6 6.4 -0.4 7.9 1 9.3 0.9 0.9 1.6 3.2 1.6 5.1 0 2.9 0.3 3.4 2.3 3.4 3.3 0 8.7 5.9 8.7 9.5 0 2.3 -0.3 2.6 -1.2 1.7 -1.7 -1.7 -3.3 -1.5 -1.8 0.3 1.1 1.3 0.8 1.5 -1.7 1.5 -1.9 0 -3.9 -1 -5.6 -2.8z"/>
  <path d="M63.6 72.4 c-0.8 -2.1 -0.8 -2.1 1.4 -2.7 1.6 -0.4 2 0 2 1.9 0 2.7 -2.4 3.3 -3.4 0.8z"/>
  <path d="M195.2 70.9 c0.3 -3.1 0.6 -3.4 3.7 -3.7 l3.5 -0.4 -2.5 3.3 c-3.6 4.6 -5.1 4.9 -4.7 0.8z"/>
  <path d="M178 64.6 c0 -3.3 0.2 -3.6 3.1 -3.6 l3 0 -2.1 3 c-3.1 4.4 -4 4.5 -4 0.6z"/>
  <path d="M565.8 66.3 c1.2 -0.2 3 -0.2 4 0 0.9 0.3 -0.1 0.5 -2.3 0.4 -2.2 0 -3 -0.2 -1.7 -0.4z"/>
  <path d="M130.7 49.8 c-0.3 -2.9 -0.9 -7.4 -1.3 -10 -0.7 -5.1 0.6 -6.5 2.6 -2.8 1.6 2.9 3.1 12.9 2.4 15.7 -1.1 4.2 -3.1 2.6 -3.7 -2.9z"/>
  <path d="M177.3 44.5 c3.6 -3.2 4.7 -3.1 4.7 0 0 2.2 -0.4 2.5 -3.7 2.5 l-3.8 -0.1 2.8 -2.4z"/>
  <path d="M195 38.6 c0 -1.3 2.8 -2.6 5.8 -2.6 0.6 0 1.2 0.9 1.2 2 0 1.6 -0.7 2 -3.5 2 -2.3 0 -3.5 -0.5 -3.5 -1.4z"/>
  <path d="M150.4 36.5 c-0.9 -2.2 0.3 -4.5 2 -3.9 0.8 0.3 2.2 1.7 3.1 3 1.5 2.4 1.5 2.4 -1.5 2.4 -1.8 0 -3.3 -0.6 -3.6 -1.5z"/>
  <path d="M121.1 29.5 c-1.7 -1.9 -3.5 -3.5 -4.1 -3.5 -0.5 0 -1 -0.7 -1 -1.5 0 -0.9 -0.9 -1.5 -2.5 -1.5 -2 0 -2.5 -0.5 -2.5 -2.5 0 -1.4 0.4 -2.5 0.8 -2.5 1.8 0 13.8 8.8 16 11.8 l2.5 3.2 -3.1 0 c-2.2 0 -3.8 -0.9 -6.1 -3.5z"/>
  <path d="M97 27.3 c0.1 -0.5 1.8 -3.6 3.8 -7 3.1 -5.1 4.1 -6 5.5 -5.2 2.1 1.2 2.2 2.9 0.2 2.9 -0.9 0 -1.5 0.9 -1.5 2.5 0 1.6 -0.6 2.5 -1.5 2.5 -0.9 0 -1.5 0.9 -1.5 2.5 0 2 -0.5 2.5 -2.5 2.5 -1.4 0 -2.5 -0.3 -2.5 -0.7z"/>
  <path d="M517.5 17 c2.7 -2.7 5.1 -5 5.4 -5 0.3 0 -1.7 2.3 -4.4 5 -2.7 2.8 -5.1 5 -5.4 5 -0.3 0 1.7 -2.2 4.4 -5z"/>
 </g>
 <g fill="#91c04f">
  <path d="M82.6 96.5 c-8 -2.8 -14.2 -10.1 -18 -21.3 l-1.5 -4.2 4.7 -2.4 c6.3 -3.2 14.7 -5.6 19.4 -5.6 5.4 0 10.6 2.4 15.6 7.3 4.5 4.3 11.8 15.4 10.9 16.4 -0.3 0.2 -6.2 -1.3 -13.1 -3.5 -7.5 -2.3 -12.9 -3.6 -13.2 -3 -1 1.6 0.6 2.4 12.6 6.3 6.3 2.1 11.9 4.1 12.4 4.5 2 1.9 -12.8 7 -20.4 6.9 -3 0 -7.2 -0.6 -9.4 -1.4z"/>
  <path d="M173.6 81.8 c0.5 -0.7 4.2 -6.2 8.1 -12 4 -5.9 6.8 -11 6.3 -11.3 -1.6 -1 -2.4 -0.1 -10.1 11.2 -8.5 12.5 -8.6 12.4 -8.8 -3.7 -0.1 -11.5 1.9 -16.6 8.7 -21.7 4.2 -3.2 14.6 -6.9 20.6 -7.5 2.8 -0.3 3.1 0 4.7 5.2 2.4 7.4 2.4 17.4 0 22.5 -2.7 5.8 -8.6 11.4 -15.5 14.6 -7.3 3.3 -15.3 4.9 -14 2.7z"/>
  <path d="M114.8 78.4 c-3.4 -1.8 -3.6 -3.4 -0.4 -3.4 1.6 0 2.6 0.7 2.9 2.2 0.8 2.9 0.7 2.9 -2.5 1.2z"/>
  <path d="M122 78.1 c0 -1.2 0.6 -2.1 1.5 -2.1 0.8 0 1.5 0.4 1.5 0.9 0 0.5 -0.7 1.4 -1.5 2.1 -1.3 1 -1.5 0.9 -1.5 -0.9z"/>
  <path d="M101.3 66.7 c-3.5 -3.6 -6.3 -7 -6.3 -7.7 0 -2.1 5.5 -0.7 5.8 1.5 0.2 1.1 2 3.6 3.9 5.6 1.9 2 3.3 4.4 3.1 5.4 -0.2 1.3 -1.9 0 -6.5 -4.8z"/>
  <path d="M150.4 65.3 c1.2 -6.6 1.7 -16.3 0.8 -16.3 -0.9 0 -2.2 7.7 -2.2 13.7 0 4.9 -1.5 4.8 -4.9 -0.4 -6.7 -10.1 -6.2 -16.2 2.2 -25 l5.1 -5.4 3.9 3.8 c8.9 8.6 9 18.4 0.2 28.2 -4.4 4.8 -5.9 5.2 -5.1 1.4z"/>
  <path d="M93 37 c1.8 -6.3 4 -6.9 4 -1 0 3.6 -0.3 4 -2.4 4 -2.2 0 -2.4 -0.3 -1.6 -3z"/>
 </g>
 <g fill="#548241">
  <path d="M113.3 77.4 c-4.2 -2.1 -16.6 -15.2 -19.3 -20.3 -2.6 -5.2 -2.6 -14.6 0 -22.3 2.2 -6.8 9.7 -19.8 11.4 -19.8 2.6 0 16.5 9.1 20.8 13.8 10.1 10.8 10.6 28.8 1.1 44.5 -1.9 3.1 -3.8 5.7 -4.3 5.7 -0.8 0 -2.6 -7.1 -5.6 -22.5 -1.9 -10.1 -3 -12.3 -5 -10.3 -1.1 1.1 -0.7 4.2 2 17.1 1.8 8.6 3 15.7 2.7 15.7 -0.3 0 -2.1 -0.8 -3.8 -1.6z"/>
 </g>
</svg>